<?xml version="1.0" encoding="UTF-8" standalone="no"?>
<!-- Created with Inkscape (http://www.inkscape.org/) -->

<svg
   xmlns:dc="http://purl.org/dc/elements/1.1/"
   xmlns:cc="http://creativecommons.org/ns#"
   xmlns:rdf="http://www.w3.org/1999/02/22-rdf-syntax-ns#"
   xmlns:svg="http://www.w3.org/2000/svg"
   xmlns="http://www.w3.org/2000/svg"
   xmlns:sodipodi="http://sodipodi.sourceforge.net/DTD/sodipodi-0.dtd"
   xmlns:inkscape="http://www.inkscape.org/namespaces/inkscape"
   width="1080"
   height="1920"
   viewBox="0 0 285.74999 508.00001"
   version="1.1"
   id="svg8"
   inkscape:version="0.92.3 (2405546, 2018-03-11)"
   sodipodi:docname="Tux.svg">
  <sodipodi:namedview
     id="base"
     pagecolor="#ffffff"
     bordercolor="#666666"
     borderopacity="1.0"
     inkscape:pageopacity="0.0"
     inkscape:pageshadow="2"
     inkscape:zoom="0.35"
     inkscape:cx="1026.0226"
     inkscape:cy="1051.0884"
     inkscape:document-units="mm"
     inkscape:current-layer="svg8"
     showgrid="false"
     units="px"
     inkscape:pagecheckerboard="true"
     inkscape:snap-smooth-nodes="false"
     showguides="true"
     inkscape:guide-bbox="true"
     inkscape:object-paths="true"
     inkscape:window-width="1850"
     inkscape:window-height="1016"
     inkscape:window-x="70"
     inkscape:window-y="27"
     inkscape:window-maximized="1"
     inkscape:snap-nodes="false"
     inkscape:snap-intersection-paths="true"
     inkscape:snap-object-midpoints="true" />
  <defs
     id="defs2">
    <inkscape:path-effect
       effect="bspline"
       id="path-effect4233"
       is_visible="true"
       weight="33.333333"
       steps="2"
       helper_size="0"
       apply_no_weight="true"
       apply_with_weight="true"
       only_selected="false" />
    <inkscape:path-effect
       only_selected="false"
       apply_with_weight="true"
       apply_no_weight="true"
       helper_size="0"
       steps="2"
       weight="33.333333"
       is_visible="true"
       id="path-effect4230"
       effect="bspline" />
    <inkscape:path-effect
       only_selected="false"
       apply_with_weight="true"
       apply_no_weight="true"
       helper_size="0"
       steps="2"
       weight="33.333333"
       is_visible="true"
       id="path-effect991"
       effect="bspline" />
    <inkscape:path-effect
       effect="bspline"
       id="path-effect972"
       is_visible="true"
       weight="33.333333"
       steps="2"
       helper_size="0"
       apply_no_weight="true"
       apply_with_weight="true"
       only_selected="false" />
    <inkscape:path-effect
       effect="bspline"
       id="path-effect960"
       is_visible="true"
       weight="33.333333"
       steps="2"
       helper_size="0"
       apply_no_weight="true"
       apply_with_weight="true"
       only_selected="false" />
    <inkscape:path-effect
       only_selected="false"
       apply_with_weight="true"
       apply_no_weight="true"
       helper_size="0"
       steps="2"
       weight="33.333333"
       is_visible="true"
       id="path-effect954"
       effect="bspline" />
    <inkscape:path-effect
       effect="bspline"
       id="path-effect841"
       is_visible="true"
       weight="33.333333"
       steps="2"
       helper_size="0"
       apply_no_weight="true"
       apply_with_weight="true"
       only_selected="false" />
    <inkscape:path-effect
       only_selected="false"
       apply_with_weight="true"
       apply_no_weight="true"
       helper_size="0"
       steps="2"
       weight="33.333333"
       is_visible="true"
       id="path-effect837"
       effect="bspline" />
    <inkscape:path-effect
       only_selected="false"
       apply_with_weight="true"
       apply_no_weight="true"
       helper_size="0"
       steps="2"
       weight="33.333333"
       is_visible="true"
       id="path-effect837-3"
       effect="bspline" />
    <inkscape:path-effect
       only_selected="false"
       apply_with_weight="true"
       apply_no_weight="true"
       helper_size="0"
       steps="2"
       weight="33.333333"
       is_visible="true"
       id="path-effect837-7"
       effect="bspline" />
    <inkscape:path-effect
       only_selected="false"
       apply_with_weight="true"
       apply_no_weight="true"
       helper_size="0"
       steps="2"
       weight="33.333333"
       is_visible="true"
       id="path-effect837-35"
       effect="bspline" />
  </defs>
  <metadata
     id="metadata5">
    <rdf:RDF>
      <cc:Work
         rdf:about="">
        <dc:format>image/svg+xml</dc:format>
        <dc:type
           rdf:resource="http://purl.org/dc/dcmitype/StillImage" />
        <dc:title />
      </cc:Work>
    </rdf:RDF>
  </metadata>
  <g
     transform="translate(0,211.00003)"
     id="layer1"
     inkscape:groupmode="layer"
     inkscape:label="Layer 1" />
  <g
     id="g4301">
    <g
       transform="translate(8.2771975e-7,261.33098)"
       id="g4094"
       style="">
      <g
         id="g4064">
        <path
           sodipodi:nodetypes="cccsccscccsccccc"
           inkscape:connector-curvature="0"
           id="path4056"
           d="m 141.36527,-197.02145 c -39.2144,0.9935 -70.698006,33.09367 -70.698006,72.54751 -1.110385,18.47797 -6.248278,42.752038 -12.23336,71.799231 -10.679908,36.975396 -22.540742,84.854454 -22.540742,124.370707 0,56.506132 43.659937,102.814912 99.085938,107.032212 0.90862,0.0691 1.82042,0.12726 2.73523,0.17365 1.82961,0.0927 3.67155,0.13951 5.52421,0.13951 0.46317,0 0.92573,-0.003 1.38751,-0.009 1.38533,-0.0175 2.76449,-0.0612 4.1367,-0.13073 0.91481,-0.0464 1.82609,-0.10451 2.73472,-0.17365 55.426,-4.2173 99.08645,-50.52608 99.08645,-107.032212 0,-39.516253 -11.86083,-87.395311 -22.54074,-124.370707 -5.98508,-29.047193 -9.42045,-53.025071 -12.23336,-71.799231 0,-39.45384 -31.48361,-71.55401 -70.69801,-72.54751 -0.002,-4e-5 -0.003,4e-5 -0.005,0 -1.27341,-0.0285 -2.56483,-0.0291 -3.74154,2.2e-4 z"
           style="opacity:1;fill:#0f0f0f;fill-opacity:1;stroke-width:0.26458332;paint-order:fill markers stroke" />
        <path
           sodipodi:nodetypes="scccccccccs"
           inkscape:original-d="M 47.757356,148.07735 C 40.509396,120.34365 33.261172,92.610211 26.012682,64.877035 34.053576,44.103263 42.094206,23.329756 50.134569,2.5565172 c 4.787963,-5.921892 9.576044,-11.843995 14.363095,-17.7648842 1.345133,-13.270169 2.690216,-26.542199 4.034927,-39.812898 -3.463325,0.983873 -10.39077,2.952412 -10.39077,2.952412 0,0 -14.156837,23.060657 -21.236418,34.592629 C 31.73962,-2.4823508 26.57447,12.509183 21.40838,27.502943 19.875078,41.178782 18.341602,54.854081 16.807815,68.53005 c 3.763656,15.183631 7.526984,30.367273 11.290171,45.55168 6.553496,11.33179 13.10651,22.66348 19.65937,33.99562 z"
           inkscape:path-effect="#path-effect954"
           inkscape:connector-curvature="0"
           id="path4058"
           d="m 40.856634,128.54456 c -0.34755,-8.20083 -7.595775,-35.934267 -7.199487,-60.187809 0.396288,-24.253543 8.436918,-45.02705 14.851136,-58.3746003 6.414218,-13.3475506 11.2023,-19.2696529 14.268289,-28.8651817 3.065989,-9.595529 4.411073,-22.867559 3.351908,-29.010872 -1.059164,-6.143314 -4.523069,-5.159087 -7.986659,-4.17495 -7.078806,11.530876 -14.156911,23.060611 -20.279633,36.32353 -6.122723,13.2629189 -11.287873,28.254453 -14.637607,42.589266 -3.349735,14.334813 -4.883212,28.010112 -3.768317,42.439964 1.114895,14.429851 4.878223,29.613493 10.036563,42.871643 5.15834,13.25815 11.711356,24.58984 11.363807,16.38901 z"
           style="fill:#0f0f0f;fill-opacity:1;stroke:none;stroke-width:0.26458332px;stroke-linecap:butt;stroke-linejoin:miter;stroke-opacity:1" />
        <path
           inkscape:path-effect="#path-effect972"
           style="fill:#0f0f0f;fill-opacity:1;stroke:none;stroke-width:0.26458332px;stroke-linecap:butt;stroke-linejoin:miter;stroke-opacity:1"
           d="m 239.35992,-194.90895 c -1.832,5.47934 7.12534,44.11641 6.5742,73.15842 -0.55114,29.042 -10.61121,48.485213 -20.67142,67.928704 0,0 15.40502,51.9952646 15.40502,51.9952646 7.11309,-18.7609016 14.2254,-37.5197546 18.6905,-55.3528626 4.46509,-17.833108 6.28081,-34.730605 7.01888,-49.218096 0.73808,-14.48749 0.39813,-26.55819 -6.08302,-46.43515 -6.48116,-19.87696 -19.10215,-47.55562 -20.93416,-42.07628 z"
           id="path4060"
           inkscape:connector-curvature="0"
           inkscape:original-d="m 228.57007,-228.06886 c 8.95816,38.63918 17.9155,77.27625 26.87327,115.91656 -10.06026,19.44382 -30.18064,58.330474 -30.18064,58.330474 l 15.40502,51.9952646 c 0,0 14.22554,-37.5197006 21.33926,-56.2827046 1.81657,-16.903241 3.63228,-33.800738 5.44822,-50.702534 -0.33974,-12.07322 -0.67969,-24.14392 -1.01996,-36.21626 -12.622,-27.68172 -25.24299,-55.36038 -37.86517,-83.0408 z"
           sodipodi:nodetypes="sccccccs" />
        <path
           style="opacity:1;fill:#0f0f0f;fill-opacity:1;stroke-width:0.26458332;paint-order:fill markers stroke"
           d="m 141.36527,-197.02145 c -39.2144,0.9935 -70.698006,33.09367 -70.698006,72.54751 -1.110385,18.47797 -6.248278,42.752038 -12.23336,71.799231 -10.679908,36.975396 -22.540742,84.854454 -22.540742,124.370707 0,56.506132 43.659937,102.814912 99.085938,107.032212 0.90862,0.0691 1.82042,0.12726 2.73523,0.17365 1.82961,0.0927 3.67155,0.13951 5.52421,0.13951 0.46317,0 0.92573,-0.003 1.38751,-0.009 1.38533,-0.0175 2.76449,-0.0612 4.1367,-0.13073 0.91481,-0.0464 1.82609,-0.10451 2.73472,-0.17365 55.426,-4.2173 99.08645,-50.52608 99.08645,-107.032212 0,-39.516253 -11.86083,-87.395311 -22.54074,-124.370707 -5.98508,-29.047193 -9.42045,-53.025071 -12.23336,-71.799231 0,-39.45384 -31.48361,-71.55401 -70.69801,-72.54751 -0.002,-4e-5 -0.003,4e-5 -0.005,0 -1.27341,-0.0285 -2.56483,-0.0291 -3.74154,2.2e-4 z"
           id="path4062"
           inkscape:connector-curvature="0"
           sodipodi:nodetypes="cccsccscccsccccc" />
      </g>
      <g
         id="g4070">
        <path
           transform="matrix(0.71173175,0,0,0.28871581,221.95475,223.97151)"
           inkscape:transform-center-y="-1.0585552"
           inkscape:transform-center-x="-0.29728117"
           d="m -140.58376,-155.75461 c -7.46234,14.20252 -53.08879,16.02032 -61.65737,2.45648 -8.56857,-13.56384 12.6704,-53.9864 28.70132,-54.62508 16.03091,-0.63869 40.41839,37.96608 32.95605,52.1686 z"
           inkscape:randomized="0"
           inkscape:rounded="0.26"
           inkscape:flatsided="true"
           sodipodi:arg2="1.5309767"
           sodipodi:arg1="0.48377912"
           sodipodi:r2="17.813068"
           sodipodi:r1="35.626137"
           sodipodi:cy="-172.32532"
           sodipodi:cx="-172.12157"
           sodipodi:sides="3"
           id="path4066"
           style="opacity:1;vector-effect:none;fill:#ff6600;fill-opacity:1;fill-rule:nonzero;stroke:none;stroke-width:2.64583325;stroke-linecap:butt;stroke-linejoin:miter;stroke-miterlimit:4;stroke-dasharray:none;stroke-dashoffset:0;stroke-opacity:1;paint-order:fill markers stroke"
           sodipodi:type="star" />
        <path
           sodipodi:type="star"
           style="opacity:1;vector-effect:none;fill:#ff6600;fill-opacity:1;fill-rule:nonzero;stroke:none;stroke-width:2.64583325;stroke-linecap:butt;stroke-linejoin:miter;stroke-miterlimit:4;stroke-dasharray:none;stroke-dashoffset:0;stroke-opacity:1;paint-order:fill markers stroke"
           id="path4068"
           sodipodi:sides="3"
           sodipodi:cx="-172.12157"
           sodipodi:cy="-172.32532"
           sodipodi:r1="35.626137"
           sodipodi:r2="17.813068"
           sodipodi:arg1="0.48377912"
           sodipodi:arg2="1.5309767"
           inkscape:flatsided="true"
           inkscape:rounded="0.26"
           inkscape:randomized="0"
           d="m -140.58376,-155.75461 c -7.46234,14.20252 -53.08879,16.02032 -61.65737,2.45648 -8.56857,-13.56384 12.6704,-53.9864 28.70132,-54.62508 16.03091,-0.63869 40.41839,37.96608 32.95605,52.1686 z"
           inkscape:transform-center-x="-0.29728117"
           inkscape:transform-center-y="-1.0585552"
           transform="matrix(0.71173175,0,0,0.28871581,308.20946,223.97151)" />
      </g>
      <g
         id="g4092">
        <g
           id="g4084">
          <ellipse
             style="opacity:1;vector-effect:none;fill:#ffffff;fill-opacity:1;fill-rule:nonzero;stroke:none;stroke-width:2.9553678;stroke-linecap:butt;stroke-linejoin:miter;stroke-miterlimit:4;stroke-dasharray:none;stroke-dashoffset:0;stroke-opacity:1;paint-order:fill markers stroke"
             id="ellipse4072"
             ry="100.60352"
             rx="83.663971"
             cy="58.171185"
             cx="142.875" />
          <g
             id="g4082">
            <path
               sodipodi:nodetypes="ccccccssccccc"
               inkscape:connector-curvature="0"
               id="path4074"
               d="m 108.23214,-162.83192 c -12.597581,0.0109 -22.565588,9.19331 -25.338205,21.52368 -7.338245,58.63567 -14.91494,121.943822 -22.212698,180.702178 25.315575,1.948203 45.831913,0.191424 82.873743,-2.166527 v -105.70778 c -3.41955,-20.872976 -5.31031,-22.465831 -6.51373,-43.525201 0,0 -1.14766,-19.23154 -1.56889,-22.09012 -0.21062,-1.42929 -0.67364,-5.03023 -1.61317,-8.27385 -0.93954,-3.24362 -2.35559,-6.12992 -2.35559,-6.12992 l -0.002,2.7e-4 -0.002,2.6e-4 c -4.42752,-8.78703 -13.42686,-14.33099 -23.2663,-14.33299 z"
               style="opacity:1;vector-effect:none;fill:#ffffff;fill-opacity:1;fill-rule:nonzero;stroke:none;stroke-width:3.35024333;stroke-linecap:butt;stroke-linejoin:miter;stroke-miterlimit:4;stroke-dasharray:none;stroke-dashoffset:0;stroke-opacity:1;paint-order:fill markers stroke" />
            <path
               sodipodi:nodetypes="ccccccssccccc"
               inkscape:connector-curvature="0"
               id="use4076"
               d="m 177.51786,-162.83192 c 12.59758,0.0109 22.56558,9.19331 25.3382,21.52368 7.33825,58.63567 14.91494,121.943822 22.2127,180.702178 -25.31558,1.948203 -45.83191,0.191424 -82.87374,-2.166527 v -105.70778 c 3.41955,-20.872976 5.31031,-22.465831 6.51373,-43.525201 0,0 1.14766,-19.23154 1.56889,-22.09012 0.21062,-1.42929 0.67364,-5.03023 1.61317,-8.27385 0.93954,-3.24362 2.35559,-6.12992 2.35559,-6.12992 l 0.002,2.7e-4 0.002,2.6e-4 c 4.42752,-8.78703 13.42686,-14.33099 23.2663,-14.33299 z"
               style="opacity:1;vector-effect:none;fill:#ffffff;fill-opacity:1;fill-rule:nonzero;stroke:none;stroke-width:3.35024333;stroke-linecap:butt;stroke-linejoin:miter;stroke-miterlimit:4;stroke-dasharray:none;stroke-dashoffset:0;stroke-opacity:1;paint-order:fill markers stroke" />
            <ellipse
               ry="8.4192286"
               rx="5.0305772"
               cy="-126.89107"
               cx="105.23781"
               id="ellipse4078"
               style="opacity:1;vector-effect:none;fill:#0066ff;fill-opacity:1;fill-rule:nonzero;stroke:none;stroke-width:4.16516447;stroke-linecap:butt;stroke-linejoin:miter;stroke-miterlimit:4;stroke-dasharray:none;stroke-dashoffset:0;stroke-opacity:1;paint-order:fill markers stroke" />
            <ellipse
               ry="8.4192286"
               rx="5.0305772"
               cy="-126.89107"
               cx="180.51218"
               id="use4080"
               style="opacity:1;vector-effect:none;fill:#0066ff;fill-opacity:1;fill-rule:nonzero;stroke:none;stroke-width:4.16516447;stroke-linecap:butt;stroke-linejoin:miter;stroke-miterlimit:4;stroke-dasharray:none;stroke-dashoffset:0;stroke-opacity:1;paint-order:fill markers stroke" />
          </g>
        </g>
        <g
           id="g4090">
          <path
             sodipodi:nodetypes="scsssscssccss"
             inkscape:connector-curvature="0"
             id="path4086"
             d="m 142.51913,-115.27676 c -4.25095,0.0831 -8.46988,0.65159 -12.42635,1.93652 -3.95648,1.28493 -8.11395,3.15191 -10.75426,7.78308 -2.64041,4.63135 -2.05114,9.022747 -1.05995,12.939191 0.99119,3.916448 2.75061,7.663105 4.95055,11.17728 2.19993,3.514175 4.3809,7.189183 7.42046,9.95644 3.39464,3.090507 7.41175,6.269812 12.88431,6.162843 5.47258,-0.106969 9.40423,-3.505583 12.65972,-6.641681 2.95612,-2.84772 4.96695,-6.662068 7.01784,-10.25935 2.05089,-3.597283 3.65181,-7.410492 4.47809,-11.362462 0.82629,-3.951973 1.23132,-8.361951 -1.60088,-12.886281 -2.83223,-4.52437 -7.0635,-6.22794 -11.0706,-7.35716 -4.0071,-1.12922 -8.24801,-1.53151 -12.49893,-1.44842 z"
             style="opacity:1;vector-effect:none;fill:#0f0f0f;fill-opacity:1;fill-rule:nonzero;stroke:none;stroke-width:1.82324278;stroke-linecap:butt;stroke-linejoin:miter;stroke-miterlimit:4;stroke-dasharray:none;stroke-dashoffset:0;stroke-opacity:1;paint-order:fill markers stroke" />
          <path
             transform="matrix(0.70115621,0,0,0.67725043,51.537264,-22.972284)"
             inkscape:transform-center-y="3.965706"
             inkscape:transform-center-x="0.0098501903"
             d="m 153.41271,-117.2678 c 6.25874,10.35099 -10.34814,40.508036 -22.44173,40.752767 -12.09359,0.244731 -29.90692,-29.215777 -24.07207,-39.811497 5.83485,-10.59572 40.25507,-11.29226 46.5138,-0.94127 z"
             inkscape:randomized="0"
             inkscape:rounded="0.26"
             inkscape:flatsided="true"
             sodipodi:arg2="0.50336509"
             sodipodi:arg1="-0.54383246"
             sodipodi:r2="11.735537"
             sodipodi:r1="26.860254"
             sodipodi:cy="-103.36979"
             sodipodi:cx="130.42754"
             sodipodi:sides="3"
             id="path4088"
             style="opacity:1;vector-effect:none;fill:#ff6600;fill-opacity:1;fill-rule:nonzero;stroke:none;stroke-width:2.64583325;stroke-linecap:butt;stroke-linejoin:miter;stroke-miterlimit:4;stroke-dasharray:none;stroke-dashoffset:0;stroke-opacity:1;paint-order:fill markers stroke"
             sodipodi:type="star" />
        </g>
      </g>
    </g>
    <path
       inkscape:connector-curvature="0"
       id="rect3247"
       d="M 143.63102,64.287736 V 440.36451 c 0.33182,-10e-4 0.66371,-0.002 0.99478,-0.006 1.38533,-0.0175 2.76448,-0.0612 4.13669,-0.13073 0.9148,-0.0464 1.82609,-0.10451 2.73472,-0.17365 3.85219,-0.2931 7.64721,-0.79047 11.37502,-1.47949 -0.0295,0.97247 0.39727,1.82223 1.39578,2.46342 6.09853,3.91608 38.57243,3.39146 43.88362,-0.709 3.87312,-2.99024 -4.31006,-9.72291 -13.44931,-13.08034 33.29953,-18.2259 55.88135,-53.58908 55.88135,-94.2268 0,-23.18763 -4.08621,-49.25317 -9.61905,-74.3071 7.01333,-18.49895 13.9909,-36.9834 18.39371,-54.56773 4.46508,-17.83311 6.28061,-34.73069 7.01869,-49.21819 0.73808,-14.48749 0.39833,-26.55844 -6.08283,-46.4354 -6.48116,-19.876962 -19.10213,-47.555328 -20.93413,-42.075987 -1.83201,5.47934 7.1249,44.116327 6.57376,73.158327 -0.51768,27.2793 -9.42505,46.08969 -18.84174,64.38625 -5.40251,-26.94491 -8.62264,-49.35737 -11.28252,-67.11012 0,-39.453837 -31.48361,-71.554007 -70.69801,-72.547507 -0.002,-4e-5 -0.003,3.9e-5 -0.005,0 -0.4925,-0.01098 -0.98507,-0.01405 -1.47537,-0.01654 z"
       style="opacity:1;vector-effect:none;fill:#000000;fill-opacity:0.42931937;fill-rule:nonzero;stroke:none;stroke-width:2.66573524;stroke-linecap:butt;stroke-linejoin:miter;stroke-miterlimit:4;stroke-dasharray:none;stroke-dashoffset:0;stroke-opacity:1;paint-order:fill markers stroke" />
  </g>
  <g
     style="display:inline"
     inkscape:label="Shadow"
     id="layer3"
     inkscape:groupmode="layer" />
</svg>
